<mxfile host="Electron" agent="Mozilla/5.0 (Macintosh; Intel Mac OS X 10_15_7) AppleWebKit/537.36 (KHTML, like Gecko) draw.io/26.0.16 Chrome/132.0.6834.196 Electron/34.2.0 Safari/537.36" version="26.0.16">
  <diagram name="Page-1" id="t5r8EoTNAa7UCO7NrUJF">
    <mxGraphModel dx="1346" dy="899" grid="1" gridSize="10" guides="1" tooltips="1" connect="1" arrows="1" fold="1" page="1" pageScale="1" pageWidth="850" pageHeight="1100" math="0" shadow="0">
      <root>
        <mxCell id="0" />
        <mxCell id="1" parent="0" />
        <mxCell id="XJx9qs_rCq6dydbYKr0r-32" value="" style="rounded=0.01;whiteSpace=wrap;html=1;" vertex="1" parent="1">
          <mxGeometry x="140" y="210" width="650" height="350" as="geometry" />
        </mxCell>
        <mxCell id="XJx9qs_rCq6dydbYKr0r-2" value="&lt;font style=&quot;font-size: 24px;&quot;&gt;&lt;u&gt;WEC-Grid Software&lt;/u&gt;&lt;/font&gt;" style="text;html=1;align=center;verticalAlign=middle;whiteSpace=wrap;rounded=0;" vertex="1" parent="1">
          <mxGeometry x="70" y="510" width="390" height="40" as="geometry" />
        </mxCell>
        <mxCell id="XJx9qs_rCq6dydbYKr0r-6" style="edgeStyle=orthogonalEdgeStyle;rounded=0;orthogonalLoop=1;jettySize=auto;html=1;entryX=0.5;entryY=1;entryDx=0;entryDy=0;" edge="1" parent="1" source="XJx9qs_rCq6dydbYKr0r-3" target="XJx9qs_rCq6dydbYKr0r-4">
          <mxGeometry relative="1" as="geometry" />
        </mxCell>
        <mxCell id="XJx9qs_rCq6dydbYKr0r-3" value="&lt;font style=&quot;font-size: 18px;&quot;&gt;Database&lt;/font&gt;" style="shape=cylinder3;whiteSpace=wrap;html=1;boundedLbl=1;backgroundOutline=1;size=15;" vertex="1" parent="1">
          <mxGeometry x="410" y="390" width="170" height="160" as="geometry" />
        </mxCell>
        <mxCell id="XJx9qs_rCq6dydbYKr0r-5" style="edgeStyle=orthogonalEdgeStyle;rounded=0;orthogonalLoop=1;jettySize=auto;html=1;exitX=0.5;exitY=1;exitDx=0;exitDy=0;" edge="1" parent="1" source="XJx9qs_rCq6dydbYKr0r-4" target="XJx9qs_rCq6dydbYKr0r-3">
          <mxGeometry relative="1" as="geometry" />
        </mxCell>
        <mxCell id="XJx9qs_rCq6dydbYKr0r-17" style="edgeStyle=orthogonalEdgeStyle;rounded=0;orthogonalLoop=1;jettySize=auto;html=1;exitX=1;exitY=0.25;exitDx=0;exitDy=0;entryX=0;entryY=0.5;entryDx=0;entryDy=0;" edge="1" parent="1" source="XJx9qs_rCq6dydbYKr0r-4" target="XJx9qs_rCq6dydbYKr0r-9">
          <mxGeometry relative="1" as="geometry" />
        </mxCell>
        <mxCell id="XJx9qs_rCq6dydbYKr0r-21" style="edgeStyle=orthogonalEdgeStyle;rounded=0;orthogonalLoop=1;jettySize=auto;html=1;entryX=0;entryY=0.5;entryDx=0;entryDy=0;" edge="1" parent="1" source="XJx9qs_rCq6dydbYKr0r-4" target="XJx9qs_rCq6dydbYKr0r-19">
          <mxGeometry relative="1" as="geometry" />
        </mxCell>
        <mxCell id="XJx9qs_rCq6dydbYKr0r-22" style="edgeStyle=orthogonalEdgeStyle;rounded=0;orthogonalLoop=1;jettySize=auto;html=1;exitX=0;exitY=0.5;exitDx=0;exitDy=0;entryX=1;entryY=0.25;entryDx=0;entryDy=0;" edge="1" parent="1" source="XJx9qs_rCq6dydbYKr0r-4" target="XJx9qs_rCq6dydbYKr0r-12">
          <mxGeometry relative="1" as="geometry" />
        </mxCell>
        <mxCell id="XJx9qs_rCq6dydbYKr0r-31" style="edgeStyle=orthogonalEdgeStyle;rounded=0;orthogonalLoop=1;jettySize=auto;html=1;exitX=1;exitY=0.75;exitDx=0;exitDy=0;entryX=0;entryY=0.5;entryDx=0;entryDy=0;" edge="1" parent="1" source="XJx9qs_rCq6dydbYKr0r-4" target="XJx9qs_rCq6dydbYKr0r-10">
          <mxGeometry relative="1" as="geometry" />
        </mxCell>
        <mxCell id="XJx9qs_rCq6dydbYKr0r-4" value="&lt;font style=&quot;font-size: 14px;&quot;&gt;WEC-Grid Object&lt;/font&gt;" style="shape=hexagon;perimeter=hexagonPerimeter2;whiteSpace=wrap;html=1;fixedSize=1;" vertex="1" parent="1">
          <mxGeometry x="421.25" y="240" width="147.5" height="110" as="geometry" />
        </mxCell>
        <mxCell id="XJx9qs_rCq6dydbYKr0r-24" style="edgeStyle=orthogonalEdgeStyle;rounded=0;orthogonalLoop=1;jettySize=auto;html=1;exitX=0;exitY=0.5;exitDx=0;exitDy=0;entryX=1;entryY=0.25;entryDx=0;entryDy=0;" edge="1" parent="1" source="XJx9qs_rCq6dydbYKr0r-9" target="XJx9qs_rCq6dydbYKr0r-4">
          <mxGeometry relative="1" as="geometry" />
        </mxCell>
        <mxCell id="XJx9qs_rCq6dydbYKr0r-9" value="PSS/E" style="shape=process;whiteSpace=wrap;html=1;backgroundOutline=1;" vertex="1" parent="1">
          <mxGeometry x="630" y="240" width="120" height="60" as="geometry" />
        </mxCell>
        <mxCell id="XJx9qs_rCq6dydbYKr0r-30" style="edgeStyle=orthogonalEdgeStyle;rounded=0;orthogonalLoop=1;jettySize=auto;html=1;exitX=0;exitY=0.5;exitDx=0;exitDy=0;entryX=1;entryY=0.75;entryDx=0;entryDy=0;" edge="1" parent="1" source="XJx9qs_rCq6dydbYKr0r-10" target="XJx9qs_rCq6dydbYKr0r-4">
          <mxGeometry relative="1" as="geometry" />
        </mxCell>
        <mxCell id="XJx9qs_rCq6dydbYKr0r-10" value="WEC-Sim" style="shape=process;whiteSpace=wrap;html=1;backgroundOutline=1;" vertex="1" parent="1">
          <mxGeometry x="630" y="320" width="120" height="60" as="geometry" />
        </mxCell>
        <mxCell id="XJx9qs_rCq6dydbYKr0r-23" style="edgeStyle=orthogonalEdgeStyle;rounded=0;orthogonalLoop=1;jettySize=auto;html=1;exitX=1;exitY=0.25;exitDx=0;exitDy=0;entryX=0;entryY=0.5;entryDx=0;entryDy=0;" edge="1" parent="1" source="XJx9qs_rCq6dydbYKr0r-12" target="XJx9qs_rCq6dydbYKr0r-4">
          <mxGeometry relative="1" as="geometry" />
        </mxCell>
        <mxCell id="XJx9qs_rCq6dydbYKr0r-12" value="" style="shape=internalStorage;whiteSpace=wrap;html=1;backgroundOutline=1;" vertex="1" parent="1">
          <mxGeometry x="160" y="225" width="210" height="265" as="geometry" />
        </mxCell>
        <mxCell id="XJx9qs_rCq6dydbYKr0r-13" value="&lt;font style=&quot;font-size: 14px;&quot;&gt;Local Directory&lt;/font&gt;" style="text;html=1;align=center;verticalAlign=middle;whiteSpace=wrap;rounded=0;" vertex="1" parent="1">
          <mxGeometry x="210" y="240" width="110" height="30" as="geometry" />
        </mxCell>
        <mxCell id="XJx9qs_rCq6dydbYKr0r-14" value="Field Data" style="shape=card;whiteSpace=wrap;html=1;" vertex="1" parent="1">
          <mxGeometry x="197" y="275.5" width="70" height="85" as="geometry" />
        </mxCell>
        <mxCell id="XJx9qs_rCq6dydbYKr0r-15" value="Grid Model" style="shape=card;whiteSpace=wrap;html=1;" vertex="1" parent="1">
          <mxGeometry x="292" y="273.5" width="70" height="85" as="geometry" />
        </mxCell>
        <mxCell id="XJx9qs_rCq6dydbYKr0r-16" value="WEC Model" style="shape=card;whiteSpace=wrap;html=1;" vertex="1" parent="1">
          <mxGeometry x="198" y="390" width="70" height="85" as="geometry" />
        </mxCell>
        <mxCell id="XJx9qs_rCq6dydbYKr0r-27" style="edgeStyle=orthogonalEdgeStyle;rounded=0;orthogonalLoop=1;jettySize=auto;html=1;exitX=0;exitY=0.5;exitDx=0;exitDy=0;entryX=1;entryY=0.5;entryDx=0;entryDy=0;" edge="1" parent="1" source="XJx9qs_rCq6dydbYKr0r-19" target="XJx9qs_rCq6dydbYKr0r-4">
          <mxGeometry relative="1" as="geometry" />
        </mxCell>
        <mxCell id="XJx9qs_rCq6dydbYKr0r-19" value="pyPSA" style="shape=process;whiteSpace=wrap;html=1;backgroundOutline=1;" vertex="1" parent="1">
          <mxGeometry x="630" y="400" width="120" height="60" as="geometry" />
        </mxCell>
      </root>
    </mxGraphModel>
  </diagram>
</mxfile>
